<mxfile host="app.diagrams.net" modified="2023-09-13T02:43:26.875Z" agent="Mozilla/5.0 (Windows NT 10.0; Win64; x64) AppleWebKit/537.36 (KHTML, like Gecko) Chrome/116.0.0.0 Safari/537.36" etag="eZ_W77gI-S0pA9PhzBkj" version="21.7.4" type="github">
  <diagram id="prtHgNgQTEPvFCAcTncT" name="Page-1">
    <mxGraphModel dx="1857" dy="1052" grid="1" gridSize="10" guides="1" tooltips="1" connect="1" arrows="1" fold="1" page="1" pageScale="1" pageWidth="827" pageHeight="1169" math="0" shadow="0">
      <root>
        <mxCell id="0" />
        <mxCell id="1" parent="0" />
        <mxCell id="ruLvJai_qacSIHEeh41j-1" value="Pengguna" style="swimlane;whiteSpace=wrap;html=1;startSize=23;" vertex="1" parent="1">
          <mxGeometry x="130" y="140" width="220" height="1070" as="geometry" />
        </mxCell>
        <mxCell id="ruLvJai_qacSIHEeh41j-19" value="Memilih menu penarikan uang" style="rounded=1;whiteSpace=wrap;html=1;arcSize=40;fontColor=#000000;fillColor=#ffffc0;strokeColor=#1A1A1A;" vertex="1" parent="ruLvJai_qacSIHEeh41j-1">
          <mxGeometry x="50" y="150" width="120" height="40" as="geometry" />
        </mxCell>
        <mxCell id="ruLvJai_qacSIHEeh41j-22" value="Memilih nominal" style="rounded=1;whiteSpace=wrap;html=1;arcSize=40;fontColor=#000000;fillColor=#ffffc0;strokeColor=#1A1A1A;" vertex="1" parent="ruLvJai_qacSIHEeh41j-1">
          <mxGeometry x="45" y="310" width="130" height="60" as="geometry" />
        </mxCell>
        <mxCell id="ruLvJai_qacSIHEeh41j-46" value="&lt;font style=&quot;font-size: 10px;&quot;&gt;Mengambil uang &lt;br&gt;cash&lt;/font&gt;" style="rounded=1;whiteSpace=wrap;html=1;arcSize=40;fontColor=#000000;fillColor=#ffffc0;strokeColor=#1A1A1A;" vertex="1" parent="ruLvJai_qacSIHEeh41j-1">
          <mxGeometry x="60" y="730" width="100" height="40" as="geometry" />
        </mxCell>
        <mxCell id="ruLvJai_qacSIHEeh41j-2" value="Mesin ATM" style="swimlane;whiteSpace=wrap;html=1;startSize=23;" vertex="1" parent="1">
          <mxGeometry x="350" y="140" width="300" height="1070" as="geometry" />
        </mxCell>
        <mxCell id="ruLvJai_qacSIHEeh41j-10" value="" style="ellipse;html=1;shape=startState;fillColor=#000000;strokeColor=#1A1A1A;" vertex="1" parent="ruLvJai_qacSIHEeh41j-2">
          <mxGeometry x="153.7" y="60" width="30" height="30" as="geometry" />
        </mxCell>
        <mxCell id="ruLvJai_qacSIHEeh41j-11" value="" style="edgeStyle=orthogonalEdgeStyle;html=1;verticalAlign=bottom;endArrow=open;endSize=8;strokeColor=#1A1A1A;rounded=0;" edge="1" parent="ruLvJai_qacSIHEeh41j-2">
          <mxGeometry relative="1" as="geometry">
            <mxPoint x="166.85" y="150" as="targetPoint" />
            <mxPoint x="166.85000000000008" y="70" as="sourcePoint" />
          </mxGeometry>
        </mxCell>
        <mxCell id="ruLvJai_qacSIHEeh41j-12" value="Sistem menampilkan menu" style="rounded=1;whiteSpace=wrap;html=1;arcSize=40;fontColor=#000000;fillColor=#ffffc0;strokeColor=#1A1A1A;" vertex="1" parent="ruLvJai_qacSIHEeh41j-2">
          <mxGeometry x="106.85000000000001" y="145" width="120" height="50" as="geometry" />
        </mxCell>
        <mxCell id="ruLvJai_qacSIHEeh41j-20" value="Menampilkan pilihan nominal penarikan" style="rounded=1;whiteSpace=wrap;html=1;arcSize=40;fontColor=#000000;fillColor=#ffffc0;strokeColor=#1A1A1A;" vertex="1" parent="ruLvJai_qacSIHEeh41j-2">
          <mxGeometry x="101.85000000000001" y="240" width="130" height="60" as="geometry" />
        </mxCell>
        <mxCell id="ruLvJai_qacSIHEeh41j-34" style="edgeStyle=orthogonalEdgeStyle;rounded=0;orthogonalLoop=1;jettySize=auto;html=1;entryX=0.473;entryY=0.092;entryDx=0;entryDy=0;entryPerimeter=0;" edge="1" parent="ruLvJai_qacSIHEeh41j-2" source="ruLvJai_qacSIHEeh41j-25" target="ruLvJai_qacSIHEeh41j-28">
          <mxGeometry relative="1" as="geometry" />
        </mxCell>
        <mxCell id="ruLvJai_qacSIHEeh41j-25" value="Mengecek saldo" style="rounded=1;whiteSpace=wrap;html=1;arcSize=40;fontColor=#000000;fillColor=#ffffc0;strokeColor=#1A1A1A;" vertex="1" parent="ruLvJai_qacSIHEeh41j-2">
          <mxGeometry x="101.85000000000001" y="410" width="130" height="60" as="geometry" />
        </mxCell>
        <mxCell id="ruLvJai_qacSIHEeh41j-28" value="" style="rhombus;whiteSpace=wrap;html=1;fontColor=#000000;fillColor=#ffffc0;strokeColor=#1A1A1A;" vertex="1" parent="ruLvJai_qacSIHEeh41j-2">
          <mxGeometry x="128.85" y="500" width="80" height="40" as="geometry" />
        </mxCell>
        <mxCell id="ruLvJai_qacSIHEeh41j-29" value="" style="edgeStyle=orthogonalEdgeStyle;html=1;align=left;verticalAlign=bottom;endArrow=open;endSize=8;strokeColor=#1A1A1A;rounded=0;entryX=1;entryY=0.5;entryDx=0;entryDy=0;" edge="1" source="ruLvJai_qacSIHEeh41j-28" parent="ruLvJai_qacSIHEeh41j-2" target="ruLvJai_qacSIHEeh41j-48">
          <mxGeometry x="-1" relative="1" as="geometry">
            <mxPoint x="250" y="520" as="targetPoint" />
            <Array as="points">
              <mxPoint x="250" y="520" />
              <mxPoint x="250" y="820" />
            </Array>
          </mxGeometry>
        </mxCell>
        <mxCell id="ruLvJai_qacSIHEeh41j-32" value="tidak cukup" style="edgeLabel;html=1;align=center;verticalAlign=middle;resizable=0;points=[];" vertex="1" connectable="0" parent="ruLvJai_qacSIHEeh41j-29">
          <mxGeometry x="-0.1492" y="2" relative="1" as="geometry">
            <mxPoint as="offset" />
          </mxGeometry>
        </mxCell>
        <mxCell id="ruLvJai_qacSIHEeh41j-30" value="" style="edgeStyle=orthogonalEdgeStyle;html=1;align=left;verticalAlign=top;endArrow=open;endSize=8;strokeColor=#1A1A1A;rounded=0;" edge="1" source="ruLvJai_qacSIHEeh41j-28" parent="ruLvJai_qacSIHEeh41j-2">
          <mxGeometry x="-1" relative="1" as="geometry">
            <mxPoint x="58.7" y="580" as="targetPoint" />
          </mxGeometry>
        </mxCell>
        <mxCell id="ruLvJai_qacSIHEeh41j-58" value="cukup" style="edgeLabel;html=1;align=center;verticalAlign=middle;resizable=0;points=[];" vertex="1" connectable="0" parent="ruLvJai_qacSIHEeh41j-30">
          <mxGeometry x="0.4317" y="1" relative="1" as="geometry">
            <mxPoint as="offset" />
          </mxGeometry>
        </mxCell>
        <mxCell id="ruLvJai_qacSIHEeh41j-38" style="edgeStyle=orthogonalEdgeStyle;rounded=0;orthogonalLoop=1;jettySize=auto;html=1;exitX=0.186;exitY=0.494;exitDx=0;exitDy=0;exitPerimeter=0;" edge="1" parent="ruLvJai_qacSIHEeh41j-2" source="ruLvJai_qacSIHEeh41j-36">
          <mxGeometry relative="1" as="geometry">
            <mxPoint x="68.60697674418607" y="630" as="targetPoint" />
            <Array as="points">
              <mxPoint x="68.7" y="585" />
              <mxPoint x="68.7" y="610" />
            </Array>
          </mxGeometry>
        </mxCell>
        <mxCell id="ruLvJai_qacSIHEeh41j-39" style="edgeStyle=orthogonalEdgeStyle;rounded=0;orthogonalLoop=1;jettySize=auto;html=1;exitX=0.793;exitY=0.591;exitDx=0;exitDy=0;exitPerimeter=0;entryX=0.5;entryY=0;entryDx=0;entryDy=0;" edge="1" parent="ruLvJai_qacSIHEeh41j-2" source="ruLvJai_qacSIHEeh41j-36" target="ruLvJai_qacSIHEeh41j-41">
          <mxGeometry relative="1" as="geometry">
            <mxPoint x="150.7" y="630" as="targetPoint" />
            <mxPoint x="150.2" y="585" as="sourcePoint" />
            <Array as="points">
              <mxPoint x="158" y="608" />
              <mxPoint x="158" y="608" />
            </Array>
          </mxGeometry>
        </mxCell>
        <mxCell id="ruLvJai_qacSIHEeh41j-36" value="" style="shape=line;html=1;strokeWidth=6;strokeColor=#1A1A1A;" vertex="1" parent="ruLvJai_qacSIHEeh41j-2">
          <mxGeometry x="38.7" y="580" width="150" height="10" as="geometry" />
        </mxCell>
        <mxCell id="ruLvJai_qacSIHEeh41j-44" style="edgeStyle=orthogonalEdgeStyle;rounded=0;orthogonalLoop=1;jettySize=auto;html=1;entryX=0.205;entryY=0.681;entryDx=0;entryDy=0;entryPerimeter=0;" edge="1" parent="ruLvJai_qacSIHEeh41j-2" source="ruLvJai_qacSIHEeh41j-40" target="ruLvJai_qacSIHEeh41j-43">
          <mxGeometry relative="1" as="geometry" />
        </mxCell>
        <mxCell id="ruLvJai_qacSIHEeh41j-40" value="&lt;font style=&quot;font-size: 10px;&quot;&gt;Mengeluarkan uang&lt;/font&gt;" style="rounded=1;whiteSpace=wrap;html=1;arcSize=40;fontColor=#000000;fillColor=#ffffc0;strokeColor=#1A1A1A;" vertex="1" parent="ruLvJai_qacSIHEeh41j-2">
          <mxGeometry x="30" y="630" width="78.7" height="40" as="geometry" />
        </mxCell>
        <mxCell id="ruLvJai_qacSIHEeh41j-45" style="edgeStyle=orthogonalEdgeStyle;rounded=0;orthogonalLoop=1;jettySize=auto;html=1;entryX=0.795;entryY=0.562;entryDx=0;entryDy=0;entryPerimeter=0;" edge="1" parent="ruLvJai_qacSIHEeh41j-2" source="ruLvJai_qacSIHEeh41j-41" target="ruLvJai_qacSIHEeh41j-43">
          <mxGeometry relative="1" as="geometry" />
        </mxCell>
        <mxCell id="ruLvJai_qacSIHEeh41j-41" value="&lt;font style=&quot;font-size: 10px;&quot;&gt;Mengurangi saldo&lt;/font&gt;" style="rounded=1;whiteSpace=wrap;html=1;arcSize=40;fontColor=#000000;fillColor=#ffffc0;strokeColor=#1A1A1A;" vertex="1" parent="ruLvJai_qacSIHEeh41j-2">
          <mxGeometry x="118.7" y="630" width="78.7" height="40" as="geometry" />
        </mxCell>
        <mxCell id="ruLvJai_qacSIHEeh41j-43" value="" style="shape=line;html=1;strokeWidth=6;strokeColor=#1A1A1A;" vertex="1" parent="ruLvJai_qacSIHEeh41j-2">
          <mxGeometry x="38.69999999999999" y="700" width="150" height="10" as="geometry" />
        </mxCell>
        <mxCell id="ruLvJai_qacSIHEeh41j-54" style="edgeStyle=orthogonalEdgeStyle;rounded=0;orthogonalLoop=1;jettySize=auto;html=1;entryX=0.5;entryY=0;entryDx=0;entryDy=0;" edge="1" parent="ruLvJai_qacSIHEeh41j-2" source="ruLvJai_qacSIHEeh41j-48" target="ruLvJai_qacSIHEeh41j-53">
          <mxGeometry relative="1" as="geometry" />
        </mxCell>
        <mxCell id="ruLvJai_qacSIHEeh41j-48" value="" style="rhombus;whiteSpace=wrap;html=1;fontColor=#000000;fillColor=#ffffc0;strokeColor=#1A1A1A;" vertex="1" parent="ruLvJai_qacSIHEeh41j-2">
          <mxGeometry x="73.70000000000005" y="800" width="80" height="40" as="geometry" />
        </mxCell>
        <mxCell id="ruLvJai_qacSIHEeh41j-56" style="edgeStyle=orthogonalEdgeStyle;rounded=0;orthogonalLoop=1;jettySize=auto;html=1;" edge="1" parent="ruLvJai_qacSIHEeh41j-2" source="ruLvJai_qacSIHEeh41j-53" target="ruLvJai_qacSIHEeh41j-55">
          <mxGeometry relative="1" as="geometry" />
        </mxCell>
        <mxCell id="ruLvJai_qacSIHEeh41j-53" value="&lt;span style=&quot;font-size: 10px;&quot;&gt;Menampilkan&amp;nbsp;&lt;br&gt;&lt;/span&gt;saldo" style="rounded=1;whiteSpace=wrap;html=1;arcSize=40;fontColor=#000000;fillColor=#ffffc0;strokeColor=#1A1A1A;" vertex="1" parent="ruLvJai_qacSIHEeh41j-2">
          <mxGeometry x="63.69999999999999" y="880" width="100" height="40" as="geometry" />
        </mxCell>
        <mxCell id="ruLvJai_qacSIHEeh41j-55" value="" style="ellipse;html=1;shape=endState;fillColor=#000000;strokeColor=#1A1A1A;" vertex="1" parent="ruLvJai_qacSIHEeh41j-2">
          <mxGeometry x="98.69999999999999" y="960" width="30" height="30" as="geometry" />
        </mxCell>
        <mxCell id="ruLvJai_qacSIHEeh41j-21" style="edgeStyle=orthogonalEdgeStyle;rounded=0;orthogonalLoop=1;jettySize=auto;html=1;entryX=0;entryY=0.5;entryDx=0;entryDy=0;" edge="1" parent="1" source="ruLvJai_qacSIHEeh41j-19" target="ruLvJai_qacSIHEeh41j-20">
          <mxGeometry relative="1" as="geometry">
            <Array as="points">
              <mxPoint x="240" y="410" />
            </Array>
          </mxGeometry>
        </mxCell>
        <mxCell id="ruLvJai_qacSIHEeh41j-24" style="edgeStyle=orthogonalEdgeStyle;rounded=0;orthogonalLoop=1;jettySize=auto;html=1;entryX=1;entryY=0.5;entryDx=0;entryDy=0;" edge="1" parent="1" source="ruLvJai_qacSIHEeh41j-20" target="ruLvJai_qacSIHEeh41j-22">
          <mxGeometry relative="1" as="geometry">
            <Array as="points">
              <mxPoint x="490" y="480" />
            </Array>
          </mxGeometry>
        </mxCell>
        <mxCell id="ruLvJai_qacSIHEeh41j-27" style="edgeStyle=orthogonalEdgeStyle;rounded=0;orthogonalLoop=1;jettySize=auto;html=1;entryX=0;entryY=0.5;entryDx=0;entryDy=0;" edge="1" parent="1" source="ruLvJai_qacSIHEeh41j-22" target="ruLvJai_qacSIHEeh41j-25">
          <mxGeometry relative="1" as="geometry">
            <Array as="points">
              <mxPoint x="240" y="580" />
            </Array>
          </mxGeometry>
        </mxCell>
        <mxCell id="ruLvJai_qacSIHEeh41j-13" value="" style="edgeStyle=orthogonalEdgeStyle;html=1;verticalAlign=bottom;endArrow=open;endSize=8;strokeColor=#000000;rounded=0;entryX=1;entryY=0.5;entryDx=0;entryDy=0;" edge="1" source="ruLvJai_qacSIHEeh41j-12" parent="1" target="ruLvJai_qacSIHEeh41j-19">
          <mxGeometry relative="1" as="geometry">
            <mxPoint x="300" y="310" as="targetPoint" />
          </mxGeometry>
        </mxCell>
        <mxCell id="ruLvJai_qacSIHEeh41j-47" style="edgeStyle=orthogonalEdgeStyle;rounded=0;orthogonalLoop=1;jettySize=auto;html=1;entryX=1;entryY=0.5;entryDx=0;entryDy=0;" edge="1" parent="1" source="ruLvJai_qacSIHEeh41j-43" target="ruLvJai_qacSIHEeh41j-46">
          <mxGeometry relative="1" as="geometry">
            <Array as="points">
              <mxPoint x="464" y="890" />
            </Array>
          </mxGeometry>
        </mxCell>
        <mxCell id="ruLvJai_qacSIHEeh41j-52" style="edgeStyle=orthogonalEdgeStyle;rounded=0;orthogonalLoop=1;jettySize=auto;html=1;entryX=0;entryY=0.5;entryDx=0;entryDy=0;" edge="1" parent="1" source="ruLvJai_qacSIHEeh41j-46" target="ruLvJai_qacSIHEeh41j-48">
          <mxGeometry relative="1" as="geometry">
            <Array as="points">
              <mxPoint x="240" y="960" />
            </Array>
          </mxGeometry>
        </mxCell>
      </root>
    </mxGraphModel>
  </diagram>
</mxfile>
